<?xml version="1.0" encoding="UTF-8" standalone="no"?>
<!-- Created with Inkscape (http://www.inkscape.org/) -->

<svg
   xmlns:dc="http://purl.org/dc/elements/1.1/"
   xmlns:cc="http://creativecommons.org/ns#"
   xmlns:rdf="http://www.w3.org/1999/02/22-rdf-syntax-ns#"
   xmlns:svg="http://www.w3.org/2000/svg"
   xmlns="http://www.w3.org/2000/svg"
   xmlns:sodipodi="http://sodipodi.sourceforge.net/DTD/sodipodi-0.dtd"
   xmlns:inkscape="http://www.inkscape.org/namespaces/inkscape"
   width="1024"
   height="1024"
   viewBox="0 0 270.93333 270.93334"
   version="1.1"
   id="svg8"
   inkscape:version="0.92.3 (2405546, 2018-03-11)"
   sodipodi:docname="ticlo0.svg">
  <defs
     id="defs2" />
  <sodipodi:namedview
     id="base"
     pagecolor="#ffffff"
     bordercolor="#666666"
     borderopacity="1.0"
     inkscape:pageopacity="0.0"
     inkscape:pageshadow="2"
     inkscape:zoom="0.24748737"
     inkscape:cx="-454.68572"
     inkscape:cy="105.88848"
     inkscape:document-units="px"
     inkscape:current-layer="layer1"
     showgrid="false"
     inkscape:window-width="2560"
     inkscape:window-height="1387"
     inkscape:window-x="-8"
     inkscape:window-y="-8"
     inkscape:window-maximized="1"
     units="px" />
  <metadata
     id="metadata5">
    <rdf:RDF>
      <cc:Work
         rdf:about="">
        <dc:format>image/svg+xml</dc:format>
        <dc:type
           rdf:resource="http://purl.org/dc/dcmitype/StillImage" />
        <dc:title></dc:title>
      </cc:Work>
    </rdf:RDF>
  </metadata>
  <g
     inkscape:label="Layer 1"
     inkscape:groupmode="layer"
     id="layer1"
     transform="translate(0,-26.06665)">
    <path
       style="stroke-width:0.670564"
       d="m 319.67578,162.51953 a 160,160 0 0 1 64.32422,128 160,160 0 0 1 -64.27344,128 H 832 a 127.99999,127.99999 0 0 0 128,-128 127.99999,127.99999 0 0 0 -128,-128 z"
       transform="scale(0.26458333)"
       id="path22-5-2-5"
       inkscape:connector-curvature="0" />
    <circle
       id="path22-5-2-5-8"
       cx="50.799999"
       cy="76.866669"
       style="stroke-width:0.17742005"
       r="33.866665" />
    <path
       style="stroke-width:0.17742005"
       d="M 50.799999,127.66667 A 33.866664,33.866664 0 0 0 16.933333,161.53333 33.866664,33.866664 0 0 0 50.799999,195.4 H 220.13333 A 33.866664,33.866664 0 0 0 254,161.53333 33.866664,33.866664 0 0 0 220.13333,127.66667 Z"
       id="path22-5-2-5-83"
       inkscape:connector-curvature="0" />
    <path
       inkscape:connector-curvature="0"
       style="stroke-width:0.17742005"
       d="m 186.35245,212.3333 a 42.333333,42.333333 0 0 0 -17.01911,33.86667 42.333333,42.333333 0 0 0 17.00568,33.86667 H 50.800003 a 33.866664,33.866664 0 0 1 -33.86667,-33.86667 33.866664,33.866664 0 0 1 33.86667,-33.86667 z"
       id="path22-5-2-5-4" />
    <circle
       id="path22-5-2-5-8-2"
       cx="-220.13333"
       cy="246.2"
       style="stroke-width:0.17742005"
       r="33.866665"
       transform="scale(-1,1)" />
  </g>
</svg>
