<?xml version="1.0" encoding="UTF-8" standalone="no"?>
<!-- Created with Inkscape (http://www.inkscape.org/) -->

<svg
   xmlns:dc="http://purl.org/dc/elements/1.1/"
   xmlns:cc="http://creativecommons.org/ns#"
   xmlns:rdf="http://www.w3.org/1999/02/22-rdf-syntax-ns#"
   xmlns:svg="http://www.w3.org/2000/svg"
   xmlns="http://www.w3.org/2000/svg"
   xmlns:sodipodi="http://sodipodi.sourceforge.net/DTD/sodipodi-0.dtd"
   xmlns:inkscape="http://www.inkscape.org/namespaces/inkscape"
   width="256"
   height="256"
   viewBox="0 0 67.733333 67.733338"
   version="1.1"
   id="svg8"
   inkscape:version="0.92.3 (2405546, 2018-03-11)"
   sodipodi:docname="ticlo_icon2.svg"
   inkscape:export-filename="C:\Users\rinick\Desktop\ticlo_logo.png"
   inkscape:export-xdpi="192"
   inkscape:export-ydpi="192">
  <defs
     id="defs2" />
  <sodipodi:namedview
     id="base"
     pagecolor="#ffffff"
     bordercolor="#666666"
     borderopacity="1.0"
     inkscape:pageopacity="0.0"
     inkscape:pageshadow="2"
     inkscape:zoom="2.8"
     inkscape:cx="122.41392"
     inkscape:cy="180.03348"
     inkscape:document-units="mm"
     inkscape:current-layer="text817"
     showgrid="false"
     units="px"
     inkscape:window-width="2560"
     inkscape:window-height="1387"
     inkscape:window-x="-8"
     inkscape:window-y="-8"
     inkscape:window-maximized="1" />
  <metadata
     id="metadata5">
    <rdf:RDF>
      <cc:Work
         rdf:about="">
        <dc:format>image/svg+xml</dc:format>
        <dc:type
           rdf:resource="http://purl.org/dc/dcmitype/StillImage" />
        <dc:title></dc:title>
      </cc:Work>
    </rdf:RDF>
  </metadata>
  <g
     inkscape:label="Layer 1"
     inkscape:groupmode="layer"
     id="layer1"
     transform="translate(0,-229.26665)">
    <g
       aria-label="ticlo"
       transform="scale(0.99982083,1.0001792)"
       style="font-style:normal;font-variant:normal;font-weight:normal;font-stretch:normal;font-size:88.45857239px;line-height:1.25;font-family:Pacifico;-inkscape-font-specification:Pacifico;letter-spacing:0px;word-spacing:0px;display:inline;fill:#000000;fill-opacity:1;stroke:none;stroke-width:0.13268785"
       id="text817">
      <path
         style="opacity:1;fill:#3f8cd9;fill-opacity:1;stroke-width:0.13268784"
         d="M 144.91016 0 L 128 0 L 96 0 L 0 0 L 0 96.035156 L 0 128 L 0 159.96484 C 9.4739032e-015 213.16791 42.815997 256 96 256 L 128 256 C 124.60911 254.25524 121.49662 252.29102 118.62695 250.13477 C 115.75729 247.97851 113.12952 245.62956 110.71094 243.11719 C 108.29236 240.60482 106.08256 237.92835 104.04492 235.11523 C 102.00728 232.30212 100.14286 229.3534 98.416016 226.29492 C 96.689174 223.23644 95.099465 220.06879 93.613281 216.82031 C 92.127097 213.57184 90.743403 210.24247 89.427734 206.85938 C 86.796398 200.09319 84.43653 193.11303 82.066406 186.14062 C 82.178664 180.51135 82.410994 174.88123 82.755859 169.25195 C 83.100725 163.62268 83.558783 157.99451 84.125 152.36523 C 84.691217 146.73596 85.364314 141.10584 86.140625 135.47656 C 86.916936 129.84729 87.796337 124.21912 88.771484 118.58984 C 89.746632 112.96057 90.817741 107.33045 91.980469 101.70117 C 93.143197 96.071897 94.397277 90.443728 95.736328 84.814453 C 98.41443 73.555903 101.43415 62.295656 104.75 51.037109 C 107.07809 46.404875 109.52756 41.817849 112.19922 37.310547 C 114.87088 32.803245 117.76382 28.376775 120.98242 24.068359 C 122.59172 21.914152 124.28224 19.789838 126.06641 17.699219 C 127.85058 15.608599 129.72843 13.550991 131.71289 11.533203 C 133.69735 9.5154157 135.78983 7.5372735 138 5.6015625 C 140.18189 3.6906207 142.48368 1.8220009 144.91016 0 z "
         id="path1479"
         transform="matrix(0.26463075,0,0,0.26453593,0,229.22557)" />
      <path
         style="opacity:1;fill:#989898;fill-opacity:1;stroke-width:0.13268784"
         d="M 144.91016 0 C 142.48368 1.8220009 140.18189 3.6906207 138 5.6015625 C 135.78983 7.5372735 133.69735 9.5154157 131.71289 11.533203 C 129.72843 13.550991 127.85058 15.608599 126.06641 17.699219 C 124.28224 19.789838 122.59172 21.914152 120.98242 24.068359 C 117.76382 28.376775 114.87088 32.803245 112.19922 37.310547 C 109.52756 41.817849 107.07809 46.404875 104.75 51.037109 C 101.43415 62.295656 98.41443 73.555903 95.736328 84.814453 C 94.397277 90.443728 93.143197 96.071897 91.980469 101.70117 C 90.817741 107.33045 89.746632 112.96057 88.771484 118.58984 C 87.796337 124.21912 86.916936 129.84729 86.140625 135.47656 C 85.364314 141.10584 84.691217 146.73596 84.125 152.36523 C 83.558783 157.99451 83.100725 163.62268 82.755859 169.25195 C 82.410994 174.88123 82.178664 180.51135 82.066406 186.14062 C 84.43653 193.11303 86.796398 200.09319 89.427734 206.85938 C 90.743403 210.24247 92.127097 213.57184 93.613281 216.82031 C 95.099465 220.06879 96.689174 223.23644 98.416016 226.29492 C 100.14286 229.3534 102.00728 232.30212 104.04492 235.11523 C 106.08256 237.92835 108.29236 240.60482 110.71094 243.11719 C 113.12952 245.62956 115.75729 247.97851 118.62695 250.13477 C 121.49662 252.29102 124.60911 254.25524 128 256 L 160 256 L 256 256 L 256 159.96484 L 256 128 L 256 96.035156 C 256 42.832092 213.184 -2.8421709e-014 160 0 L 144.91016 0 z "
         id="rect1388"
         transform="matrix(0.26463075,0,0,0.26453593,0,229.22557)" />
      <path
         style="font-style:normal;font-variant:normal;font-weight:normal;font-stretch:normal;font-size:medium;line-height:1.25;font-family:Pacifico;-inkscape-font-specification:Pacifico;letter-spacing:0px;word-spacing:0px;fill:#ffffff;fill-opacity:1;stroke:none;stroke-width:0.43766588"
         d="M 145.01953 0 C 133.92417 0 123.51013 5.2475702 113.77734 15.744141 C 104.23925 26.240736 96.064893 40.334725 89.251953 58.023438 C 82.439013 75.712125 77.377489 95.246984 74.068359 116.62891 L 57.425781 116.62891 C 48.666295 116.62891 44.285156 122.0717 44.285156 132.95703 C 44.285156 137.62218 45.258527 141.02392 47.205078 143.16211 C 49.346288 145.30029 53.338075 146.36914 59.177734 146.36914 L 70.564453 146.36914 C 69.98049 155.11631 69.6875 163.7656 69.6875 172.31836 C 69.6875 228.10577 89.542282 256 129.25195 256 C 142.09921 256 153.48664 252.69489 163.41406 246.08594 C 168.13107 242.94568 172.66777 239.3764 177.0332 235.40234 C 179.17523 239.93926 182.25626 243.72236 186.23242 246.63281 A 2.0197878 2.0205118 0 0 0 186.2832 246.66406 C 190.68233 249.70267 195.98371 251.20508 201.98242 251.20508 C 208.11638 251.20508 213.79191 249.48666 218.81641 246.10156 A 2.0197878 2.0205118 0 0 0 218.82422 246.0957 C 223.92741 242.6243 227.9641 237.85629 230.88477 231.91211 A 2.0197878 2.0205118 0 0 0 230.88477 231.89648 C 233.81564 225.83047 235.27539 218.97809 235.27539 211.41602 C 235.27539 205.87314 234.2111 200.62851 232.08008 195.75586 C 229.92379 190.82541 226.61928 186.79635 222.28516 183.80273 C 217.89047 180.6717 212.58479 179.12109 206.58789 179.12109 C 200.36294 179.12109 194.63831 180.88183 189.61328 184.36328 C 189.61041 184.36525 189.60849 184.36536 189.60547 184.36914 C 189.60093 184.37235 189.59438 184.37317 189.58984 184.37695 C 186.28475 186.60762 183.44102 189.45716 181.04492 192.85742 C 180.81159 193.09691 180.57738 193.33815 180.34961 193.60352 C 171.59011 203.71135 163.99784 211.29182 157.57422 216.3457 C 151.1506 221.39961 143.75494 223.92773 135.38477 223.92773 C 125.068 223.92773 117.47573 219.84565 112.60938 211.68164 C 107.93763 203.51763 105.60156 189.32696 105.60156 169.11133 C 105.60156 163.66866 105.79622 156.08822 106.18555 146.36914 L 141.80859 146.36914 C 163.8046 146.36914 174.80273 139.66229 174.80273 126.25 C 174.80273 122.55677 174.12037 120.03059 172.75781 118.66992 C 171.39521 117.30927 169.15745 116.62891 166.04297 116.62891 L 133.33984 116.62891 C 158.64502 94.275043 171.29883 68.033361 171.29883 37.904297 C 171.29883 27.018945 168.96271 17.981154 164.29102 10.789062 C 159.61927 3.5969456 153.19505 0 145.01953 0 z M 137.13672 27.990234 C 141.41914 27.990234 143.56055 33.724848 143.56055 45.193359 C 143.56055 55.301174 140.64044 66.575248 134.80078 79.015625 C 129.15576 91.261649 120.5901 102.3424 109.10547 112.25586 C 111.24667 96.510979 113.87576 82.223715 116.99023 69.394531 C 120.29937 56.37102 123.70518 46.262404 127.20898 39.070312 C 130.90742 31.683792 134.21688 27.990234 137.13672 27.990234 z M 205.43555 198.73047 C 207.45128 198.73047 209.04411 199.59101 210.70703 201.91992 C 212.26524 204.1022 213.21484 207.67489 213.21484 212.71484 C 213.21484 219.31017 212.06382 224.11535 210.07812 227.17773 A 2.0197878 2.0205118 0 0 0 210.06445 227.21484 C 208.09006 230.39218 206.0946 231.59375 203.5625 231.59375 C 201.28559 231.59375 199.61654 230.72837 197.98242 228.52148 C 196.46733 226.47541 195.50195 222.85203 195.50195 217.60938 C 195.50195 210.90469 196.61686 206.07636 198.49805 203.13086 C 200.55057 199.97227 202.67518 198.73047 205.43555 198.73047 z "
         transform="matrix(0.26463075,0,0,0.26453593,0,229.22557)"
         id="path819" />
    </g>
  </g>
</svg>
