<?xml version="1.0" encoding="UTF-8" standalone="no"?>
<!-- Created with Inkscape (http://www.inkscape.org/) -->

<svg
   xmlns:dc="http://purl.org/dc/elements/1.1/"
   xmlns:cc="http://creativecommons.org/ns#"
   xmlns:rdf="http://www.w3.org/1999/02/22-rdf-syntax-ns#"
   xmlns:svg="http://www.w3.org/2000/svg"
   xmlns="http://www.w3.org/2000/svg"
   xmlns:sodipodi="http://sodipodi.sourceforge.net/DTD/sodipodi-0.dtd"
   xmlns:inkscape="http://www.inkscape.org/namespaces/inkscape"
   width="600"
   height="400"
   viewBox="0 0 158.75 105.83334"
   version="1.1"
   id="svg8"
   inkscape:version="0.92.3 (2405546, 2018-03-11)"
   sodipodi:docname="ticlo.svg">
  <defs
     id="defs2" />
  <sodipodi:namedview
     id="base"
     pagecolor="#ffffff"
     bordercolor="#666666"
     borderopacity="1.0"
     inkscape:pageopacity="0.0"
     inkscape:pageshadow="2"
     inkscape:zoom="0.7"
     inkscape:cx="198.77389"
     inkscape:cy="155.0171"
     inkscape:document-units="mm"
     inkscape:current-layer="layer1"
     showgrid="false"
     units="px"
     inkscape:window-width="1945"
     inkscape:window-height="1378"
     inkscape:window-x="1034"
     inkscape:window-y="0"
     inkscape:window-maximized="0" />
  <metadata
     id="metadata5">
    <rdf:RDF>
      <cc:Work
         rdf:about="">
        <dc:format>image/svg+xml</dc:format>
        <dc:type
           rdf:resource="http://purl.org/dc/dcmitype/StillImage" />
        <dc:title></dc:title>
      </cc:Work>
    </rdf:RDF>
  </metadata>
  <g
     inkscape:label="Layer 1"
     inkscape:groupmode="layer"
     id="layer1"
     transform="translate(0,-191.16665)">
    <g
       aria-label="ticlo"
       transform="scale(0.99982083,1.0001792)"
       style="font-style:normal;font-variant:normal;font-weight:normal;font-stretch:normal;font-size:88.45857239px;line-height:1.25;font-family:Pacifico;-inkscape-font-specification:Pacifico;letter-spacing:0px;word-spacing:0px;fill:#000000;fill-opacity:1;stroke:none;stroke-width:0.13268785"
       id="text817">
      <path
         d="m 44.93323,266.19677 q 1.149961,0 1.769171,1.06151 0.707669,1.0615 0.707669,2.91913 0,3.53834 -1.680713,5.48443 -3.803719,4.6883 -8.315106,7.6959 -4.511387,3.00759 -10.349653,3.00759 -18.0455484,0 -18.0455484,-25.38761 0,-3.89218 0.2653757,-7.87282 H 5.834541 q -2.6537572,0 -3.6268015,-0.97304 -0.8845857,-0.97304 -0.8845857,-3.09605 0,-4.95368 3.9806357,-4.95368 h 5.0421385 q 1.503796,-9.73044 4.599846,-17.78017 3.09605,-8.04973 7.43052,-12.8265 4.422929,-4.77676 9.465067,-4.77676 3.71526,0 5.838266,3.27297 2.123006,3.27297 2.123006,8.22665 0,13.71107 -11.499615,23.88381 h 9.90736 q 1.415338,0 2.034548,0.61921 0.61921,0.61921 0.61921,2.29992 0,6.10364 -9.995819,6.10364 H 20.076371 q -0.176917,4.42293 -0.176917,6.89977 0,9.19969 2.123006,12.91495 2.211464,3.71526 6.899768,3.71526 3.803719,0 6.722852,-2.29992 2.919133,-2.29992 6.899769,-6.89977 1.061502,-1.23842 2.388381,-1.23842 z M 29.45298,217.19072 q -1.326879,0 -3.007592,3.36143 -1.592254,3.27297 -3.09605,9.19969 -1.415337,5.83827 -2.388381,13.00341 5.219056,-4.51139 7.784354,-10.08428 2.653757,-5.66134 2.653757,-10.26119 0,-5.21906 -1.946088,-5.21906 z"
         style="stroke-width:0.13268785"
         id="path819" />
      <path
         d="m 51.795682,238.86307 q -3.71526,0 -5.57289,-1.68071 -1.85763,-1.76917 -1.85763,-4.86522 0,-3.09605 2.388381,-5.1306 2.47684,-2.123 6.103642,-2.123 3.272967,0 5.307514,1.59225 2.034547,1.59226 2.034547,4.51139 0,3.53834 -2.299923,5.66135 -2.299923,2.03454 -6.103641,2.03454 z m -0.707669,47.50226 q -5.749807,0 -8.403564,-4.0691 -2.565299,-4.06909 -2.565299,-10.79194 0,-3.98064 0.973044,-10.17274 1.061503,-6.28056 2.653758,-11.67653 0.796127,-2.83067 2.123005,-3.89218 1.326879,-1.0615 4.246012,-1.0615 4.511387,0 4.511387,3.00759 0,2.21147 -1.680713,10.2612 -2.123006,9.73044 -2.123006,13.18032 0,2.65376 0.707669,4.0691 0.707669,1.41533 2.388381,1.41533 1.592255,0 3.980636,-2.21146 2.388382,-2.21146 6.369017,-6.98823 1.061503,-1.23842 2.388382,-1.23842 1.149961,0 1.769171,1.06151 0.707669,1.0615 0.707669,2.91913 0,3.53834 -1.680713,5.48443 -8.757399,10.70349 -16.364836,10.70349 z"
         style="stroke-width:0.13268785"
         id="path821" />
      <path
         d="m 78.872296,286.36533 q -8.66894,0 -13.534161,-4.86522 -4.776763,-4.95368 -4.776763,-13.00341 0,-7.16515 2.830674,-12.56112 2.830674,-5.39597 7.342062,-8.31511 4.511387,-2.91913 9.465067,-2.91913 4.865221,0 7.518978,2.91913 2.742216,2.83068 2.742216,7.34206 0,3.71526 -1.680713,6.28056 -1.592254,2.5653 -4.246011,2.5653 -1.680713,0 -2.742216,-0.79613 -0.973044,-0.79612 -0.973044,-2.21146 0,-0.61921 0.176917,-1.41534 0.176917,-0.79612 0.265376,-1.14996 0.442293,-1.32688 0.442293,-2.47684 0,-1.14996 -0.61921,-1.76917 -0.530752,-0.61921 -1.592255,-0.61921 -2.034547,0 -3.803718,1.85763 -1.769172,1.76917 -2.830675,4.86522 -1.061503,3.09605 -1.061503,6.81131 0,10.2612 8.934316,10.2612 3.626802,0 7.784355,-2.38839 4.246011,-2.47684 8.315105,-7.34206 1.061503,-1.23842 2.388382,-1.23842 1.149962,0 1.769172,1.06151 0.70767,1.0615 0.70767,2.91913 0,3.36142 -1.68072,5.48443 -4.157548,5.1306 -9.995814,7.96127 -5.749807,2.74222 -11.14578,2.74222 z"
         style="stroke-width:0.13268785"
         id="path823" />
      <path
         d="m 127.98339,266.19677 q 1.14996,0 1.76917,1.06151 0.70767,1.0615 0.70767,2.91913 0,3.53834 -1.68071,5.48443 -3.80372,4.6883 -8.31511,7.6959 -4.42293,3.00759 -10.08428,3.00759 -7.78435,0 -11.58807,-7.07669 -3.71526,-7.07668 -3.71526,-18.31092 0,-10.79195 2.742215,-24.59149 2.830675,-13.79953 8.226645,-23.70689 5.48443,-9.90736 13.00341,-9.90736 4.24601,0 6.6344,3.98063 2.47684,3.89218 2.47684,11.23424 0,10.52657 -5.83827,24.41457 -5.83827,13.88799 -15.83408,27.51061 0.61921,3.6268 2.03454,5.21906 1.41534,1.50379 3.71526,1.50379 3.6268,0 6.36902,-2.03454 2.74222,-2.12301 6.98823,-7.16515 1.0615,-1.23842 2.38838,-1.23842 z m -10.88041,-54.66739 q -2.03454,0 -4.59984,7.34206 -2.5653,7.34206 -4.51139,18.22246 -1.94609,10.88041 -2.123,20.87623 6.28055,-10.34966 9.99581,-20.69931 3.71526,-10.43811 3.71526,-19.01859 0,-6.72285 -2.47684,-6.72285 z"
         style="stroke-width:0.13268785"
         id="path825" />
      <path
         d="m 138.25979,286.36533 q -5.21906,0 -8.93432,-2.5653 -3.6268,-2.65376 -5.48443,-6.89977 -1.85763,-4.24601 -1.85763,-9.11123 0,-6.72285 2.47684,-11.94191 2.5653,-5.30751 6.89977,-8.22665 4.33447,-3.00759 9.73044,-3.00759 5.21906,0 8.93432,2.65376 3.71526,2.5653 5.57289,6.81131 1.85763,4.24601 1.85763,9.11123 0,6.72285 -2.5653,12.03037 -2.5653,5.21905 -6.98823,8.22664 -4.33447,2.91914 -9.64198,2.91914 z m 0.97304,-9.55353 q 3.00759,0 5.04214,-3.27297 2.12301,-3.27296 2.12301,-9.55352 0,-4.86522 -1.76918,-7.34206 -1.76917,-2.47684 -4.24601,-2.47684 -3.18451,0 -5.30751,3.27296 -2.03455,3.18451 -2.03455,9.55353 0,5.04214 1.76917,7.43052 1.76917,2.38838 4.42293,2.38838 z"
         style="stroke-width:0.13268785"
         id="path827" />
    </g>
  </g>
</svg>
